<?xml version="1.0" encoding="UTF-8" standalone="no"?>
<!-- Created with Inkscape (http://www.inkscape.org/) -->

<svg
   width="35mm"
   height="10mm"
   viewBox="0 0 35 10"
   version="1.1"
   id="svg1"
   inkscape:version="1.4.3 (0d15f75, 2025-12-25)"
   sodipodi:docname="nanosplit_logo_path.svg"
   xmlns:inkscape="http://www.inkscape.org/namespaces/inkscape"
   xmlns:sodipodi="http://sodipodi.sourceforge.net/DTD/sodipodi-0.dtd"
   xmlns="http://www.w3.org/2000/svg"
   xmlns:svg="http://www.w3.org/2000/svg">
  <sodipodi:namedview
     id="namedview1"
     pagecolor="#ffffff"
     bordercolor="#000000"
     borderopacity="0.25"
     inkscape:showpageshadow="2"
     inkscape:pageopacity="0.0"
     inkscape:pagecheckerboard="0"
     inkscape:deskcolor="#d1d1d1"
     inkscape:document-units="mm"
     inkscape:zoom="3.8399949"
     inkscape:cx="82.161567"
     inkscape:cy="13.411476"
     inkscape:window-width="1920"
     inkscape:window-height="1009"
     inkscape:window-x="-8"
     inkscape:window-y="-8"
     inkscape:window-maximized="1"
     inkscape:current-layer="g2" />
  <defs
     id="defs1" />
  <g
     inkscape:label="Layer 1"
     inkscape:groupmode="layer"
     id="layer1">
    <g
       id="g2">
      <g
         id="g1"
         transform="translate(2.4434343,0.0488165)">
        <path
           d="M 7.6282345,5.1755502 Q 7.8814704,4.4219446 8.2262374,3.7385127 8.4977795,3.2045816 8.9554348,2.3991083 9.2940997,1.8041564 9.4008859,1.6882171 9.5076722,1.5722778 9.6205605,1.5722778 q 0.097633,0 0.097633,0.085429 0,0.045766 -0.042714,0.1189903 Q 9.6358156,1.8468709 9.4222432,2.1885869 8.7174541,3.3357761 8.3940443,4.0741266 8.101145,4.7362012 7.8906235,5.3708165 7.8143477,5.5996441 7.7228166,5.7094814 7.5885711,5.8742373 7.4512745,5.8742373 q -0.1250924,0 -0.1586538,-0.1800111 -0.015255,-0.073225 -0.015255,-0.2806952 0,-0.7291974 0.1433986,-1.6200997 Q 7.5489076,3.0123663 7.6801021,2.5394559 7.3872028,2.8628656 6.804455,3.8941155 6.3437487,4.7117929 6.1149211,5.419633 6.020339,5.7125324 5.9776245,5.7827062 5.8982976,5.9169518 5.7732052,5.9169518 q -0.051868,0 -0.08848,-0.042714 -0.03051,-0.036612 -0.03051,-0.073225 0,-0.1159393 0.1983173,-0.613258 Q 6.108819,4.5409349 6.7037709,3.5340934 7.057691,2.9330394 7.5458566,2.2557096 7.7777352,1.9322999 7.8906235,1.8377178 q 0.1037352,-0.085429 0.1952663,-0.085429 0.039663,0 0.070174,0.024408 0.042715,0.033561 0.042715,0.082378 0,0.061021 -0.03051,0.1372966 Q 8.0218181,2.371649 7.8662153,3.0367746 7.6190814,4.107688 7.6190814,4.8582426 q 0,0.1037352 0.00915,0.3173076 z M 9.6815811,5.1236826 Q 9.580897,5.3006427 9.4832638,5.4226841 9.2910486,5.6606648 9.1018845,5.6606648 q -0.1647559,0 -0.256287,-0.1556028 -0.05797,-0.1006841 -0.05797,-0.2379807 0,-0.3386649 0.2135725,-0.7475036 0.2379807,-0.4546042 0.5735946,-0.698687 0.2196745,-0.1586539 0.4240939,-0.1586539 0.1281432,0 0.2135722,0.079327 0.07323,0.070174 0.07323,0.1586539 0,0.067123 -0.05187,0.1861131 0.04577,0.064072 0.04577,0.1128883 0,0.064072 -0.08543,0.2105214 -0.08848,0.1495007 -0.17696,0.3966346 -0.094582,0.262389 -0.094582,0.4210428 0,0.1281435 0.076276,0.2105215 0.021357,0.021357 0.1250922,0.070174 0.07628,0.036612 0.07628,0.1281434 0,0.05797 -0.04271,0.094582 -0.04577,0.039663 -0.106787,0.039663 -0.1647555,0 -0.2837459,-0.1464497 Q 9.669377,5.505062 9.669377,5.325051 q 0,-0.061021 0.012204,-0.2013684 z M 10.062961,4.1198921 q -0.03661,-0.067123 -0.079327,-0.097633 -0.042714,-0.033561 -0.091531,-0.033561 -0.2318786,0 -0.5034207,0.4057877 -0.2990015,0.4485021 -0.2990015,0.7597077 0,0.076276 0.027459,0.1159393 0.03051,0.039663 0.08848,0.039663 0.1464497,0 0.341716,-0.3112056 0.1098372,-0.170858 0.2715421,-0.5034208 0.1067862,-0.2166235 0.1556028,-0.2867973 0.024408,-0.036612 0.08848,-0.08848 z m 0.903106,0.4607063 q 0.03966,-0.036612 0.07628,-0.073225 0.637666,-0.6224111 0.85429,-0.6224111 0.11899,0 0.11899,0.1311945 0,0.091531 -0.106786,0.2166235 -0.582748,0.6803808 -0.582748,1.1990568 0,0.1678069 0.09153,0.3203587 0.04272,0.070174 0.04272,0.1098372 0,0.036613 -0.03661,0.070174 -0.03966,0.042715 -0.09458,0.042715 -0.125092,0 -0.210521,-0.1586538 -0.08238,-0.1495007 -0.08238,-0.3630732 0,-0.4118897 0.311205,-0.9122595 -0.41494,0.2654401 -0.771911,0.9397188 -0.09153,0.1617049 -0.195267,0.1617049 -0.05187,0 -0.08543,-0.036612 -0.04271,-0.042714 -0.04271,-0.1098373 0,-0.1647559 0.375277,-0.8634429 0.201368,-0.3783284 0.317308,-0.5491863 0.115939,-0.167807 0.198317,-0.167807 0.03966,0 0.07628,0.036612 0.04271,0.042715 0.04271,0.097633 0,0.067123 -0.08848,0.1922152 -0.128143,0.1861131 -0.20747,0.3386649 z M 13.18722,3.6591858 q 0.250185,0 0.250185,0.3051035 0,0.4057877 -0.375277,1.0281988 -0.408839,0.6742788 -0.790218,0.6742788 -0.17696,0 -0.259338,-0.1647559 -0.04272,-0.082378 -0.04272,-0.1983173 0,-0.3905325 0.268492,-0.8481877 0.250184,-0.4240939 0.588849,-0.6590236 0.198318,-0.1372966 0.360022,-0.1372966 z m -0.317307,1.1532913 q -0.07628,-0.061021 -0.07628,-0.094582 0,-0.024408 0.09763,-0.1342456 0.274593,-0.3081545 0.274593,-0.4973187 0,-0.024408 -0.01525,-0.048817 -0.02441,-0.045765 -0.07628,-0.045765 -0.09763,0 -0.286797,0.1891642 -0.244083,0.2440828 -0.372226,0.5034208 -0.149501,0.2959504 -0.149501,0.4912166 0,0.051868 0.02746,0.091531 0.03966,0.054919 0.100684,0.054919 0.14645,0 0.314257,-0.2196745 0.07322,-0.091531 0.11899,-0.1891642 0.04577,-0.097633 0.04272,-0.1006841 z M 15.66161,4.4494039 q 0.164756,0 0.164756,0.1342455 0,0.1006842 -0.152552,0.1525518 -0.262389,0.094582 -0.262389,0.3386649 0,0.1952662 0.152552,0.3051035 0.131194,0.091531 0.332563,0.091531 0.402736,0 0.704789,-0.2349297 0.189164,-0.1495007 0.189164,-0.3783283 0,-0.1403476 -0.05492,-0.2532359 Q 16.677605,4.4890673 16.558614,4.3121073 16.375552,4.0375141 16.25046,3.8117375 16.110112,3.5615527 16.110112,3.3205209 q 0,-0.5705436 0.564442,-1.0678623 0.299001,-0.259338 0.659023,-0.4210428 0.299002,-0.1311945 0.576646,-0.1311945 0.180011,0 0.305103,0.094582 0.152552,0.1128883 0.152552,0.3081546 0,0.3051035 -0.329512,0.6590236 -0.311205,0.3325628 -0.726146,0.5430842 -0.20747,0.1037352 -0.314257,0.1037352 -0.07017,0 -0.125092,-0.05797 -0.03661,-0.039663 -0.03661,-0.08848 0,-0.1128883 0.201369,-0.1830621 0.369175,-0.1311945 0.652921,-0.3691752 0.366124,-0.3051035 0.366124,-0.5339312 0,-0.08848 -0.07322,-0.1433986 -0.05797,-0.042715 -0.137297,-0.042715 -0.210521,0 -0.527829,0.1617048 -0.427145,0.2166235 -0.671228,0.5583395 -0.213572,0.2959504 -0.213572,0.5766456 0,0.2044194 0.112888,0.4210429 0.09458,0.173909 0.241032,0.3935835 0.140347,0.2105214 0.237981,0.3905325 0.112888,0.2135724 0.112888,0.3996856 0,0.3600221 -0.41189,0.6376663 -0.350869,0.2318787 -0.793269,0.2318787 -0.436298,0 -0.683432,-0.2410318 -0.186113,-0.1830621 -0.186113,-0.4210428 0,-0.2654401 0.17696,-0.4454512 0.106786,-0.1098372 0.253236,-0.1647559 0.100684,-0.039663 0.167807,-0.039663 z m 2.697115,-0.4424001 q 0.125092,-0.079327 0.186113,-0.1098373 0.125092,-0.061021 0.244083,-0.061021 0.134245,0 0.201368,0.079327 0.06712,0.076276 0.06712,0.2318787 0,0.2135725 -0.149501,0.5125739 -0.231879,0.4729104 -0.56139,0.7444526 -0.277645,0.2288276 -0.521727,0.2288276 -0.134246,0 -0.26544,-0.1037352 -0.417992,0.8451367 -0.747504,1.7238348 -0.07017,0.2105215 -0.164756,0.2105215 -0.04576,0 -0.09153,-0.061021 -0.03356,-0.042714 -0.03356,-0.094582 0,-0.1647559 0.402736,-1.0709133 0.622411,-1.3973741 1.180751,-2.3218378 0.115939,-0.1952662 0.155603,-0.2684911 0.106786,-0.1983172 0.20747,-0.1983172 0.103735,0 0.103735,0.1250924 0,0.070174 -0.07322,0.1891642 -0.08848,0.1525517 -0.140347,0.2440828 z m -0.686483,1.2661796 q 0.06712,0.070174 0.167807,0.070174 0.283746,0 0.628513,-0.5034208 0.128143,-0.1861132 0.204419,-0.3813794 0.06102,-0.1556028 0.06102,-0.2349297 0,-0.054919 -0.02746,-0.082378 -0.02441,-0.027459 -0.07933,-0.027459 -0.143399,0 -0.350869,0.1983173 -0.198317,0.1922152 -0.38138,0.5400332 -0.167807,0.3203587 -0.222725,0.4210429 z m 1.955714,-0.6590236 q -0.09153,0.2379807 -0.137297,0.3844304 -0.04577,0.1464497 -0.04577,0.2044194 0,0.076276 0.07323,0.076276 0.109838,0 0.283747,-0.2074704 0.08238,-0.1006841 0.244082,-0.3630731 0.06407,-0.1037352 0.134246,-0.1037352 0.07933,0 0.07933,0.076276 0,0.1311945 -0.302053,0.5308801 -0.314256,0.4179918 -0.582747,0.4179918 -0.11594,0 -0.189165,-0.097633 -0.05187,-0.070174 -0.05187,-0.1708579 0,-0.170858 0.103735,-0.4729105 0.103735,-0.3020524 0.308155,-0.7352994 0.524778,-1.1014237 1.070913,-1.8153659 0.436298,-0.5735946 0.723095,-0.5735946 0.09153,0 0.149501,0.070174 0.06102,0.070174 0.06102,0.1617049 0,0.4271449 -0.762759,1.4217823 -0.341716,0.4424001 -0.817678,0.8848002 -0.125092,0.1159393 -0.341715,0.3112056 z m 0.216623,-0.4851146 q 0.634615,-0.5430843 1.134985,-1.3729658 0.259338,-0.430196 0.259338,-0.5705436 0,-0.067123 -0.05797,-0.067123 -0.167807,0 -0.610207,0.6681766 -0.366124,0.5491864 -0.726146,1.3424555 z m 1.424833,-0.3295118 q 0.05187,0 0.08543,0.039664 0.02441,0.033561 0.02441,0.067123 0,0.054919 -0.08848,0.1830621 -0.317307,0.4912167 -0.451553,0.8085243 -0.143399,0.3264608 -0.253236,0.6712278 -0.04882,0.1525517 -0.152552,0.1525517 -0.06102,0 -0.09763,-0.048817 -0.03356,-0.039664 -0.03356,-0.085429 0,-0.091531 0.195266,-0.610207 0.152552,-0.4088387 0.494268,-0.9031064 0.109837,-0.1617049 0.164756,-0.2166235 0.05492,-0.05797 0.112888,-0.05797 z m 0.579697,-1.131934 q 0.137296,0 0.137296,0.1403476 0,0.1281435 -0.134245,0.2837463 -0.128144,0.1495007 -0.247134,0.1495007 -0.05797,0 -0.09458,-0.042715 -0.03661,-0.039664 -0.03661,-0.097633 0,-0.1464497 0.161705,-0.3112056 0.11899,-0.1220414 0.213573,-0.1220414 z M 22.4105,3.6622368 q -0.198318,0.3081546 -0.366125,0.689534 -0.241031,0.5430842 -0.241031,0.8115753 0,0.076276 0.03051,0.1159393 0.03356,0.039663 0.09763,0.039663 0.152552,0 0.369175,-0.2867973 0.137297,-0.17696 0.244083,-0.3539201 0.05797,-0.1006841 0.125093,-0.1006841 0.03966,0 0.06712,0.027459 0.02441,0.027459 0.02441,0.054919 0,0.1128883 -0.295951,0.5034208 -0.35392,0.4698594 -0.646819,0.4698594 -0.155603,0 -0.259338,-0.1433986 -0.06407,-0.091531 -0.06407,-0.259338 0,-0.3691753 0.213573,-0.8603919 0.05187,-0.1220414 0.286797,-0.5888498 -0.08238,0.021357 -0.125093,0.021357 -0.06407,0 -0.112888,-0.03051 -0.06712,-0.042715 -0.06712,-0.1067862 0,-0.076276 0.08848,-0.1220414 0.02441,-0.012204 0.225777,-0.039664 0.07322,-0.012204 0.213572,-0.05797 0.106787,-0.1922152 0.347818,-0.521727 0.134246,-0.1830621 0.186114,-0.2379807 0.07322,-0.076276 0.128143,-0.076276 0.03966,0 0.07933,0.042714 0.03661,0.039664 0.03661,0.079327 0,0.079327 -0.170858,0.3142566 -0.112888,0.1525518 -0.167807,0.2471339 0.338665,-0.091531 0.485115,-0.091531 0.167807,0 0.167807,0.1403476 0,0.070174 -0.05797,0.1037352 -0.03051,0.018306 -0.158654,0.03051 -0.05187,-0.00305 -0.460706,0.1159393 -0.112888,0.033561 -0.222725,0.070174 z"
           id="text1"
           style="font-size:6.24852px;font-family:'Freestyle Script';-inkscape-font-specification:'Freestyle Script, Normal';text-align:center;text-anchor:middle;fill:#aa8800;stroke-width:0.177125"
           transform="translate(-0.52916667)"
           aria-label="Nano Split" />
        <path
           d="M 0.86756059,7.9673758 H 0.66720458 L 0.33817165,7.2635389 0.24317527,7.0372748 V 7.6063895 7.9673758 H 0.09981709 V 6.838646 h 0.1977652 L 0.61107035,7.5053479 0.72420241,7.7635653 V 7.1590429 6.838646 h 0.14335818 z m 0.79710601,0 -0.00345,-0.1165865 q -0.070815,0.069952 -0.1442218,0.1010416 -0.072543,0.03109 -0.1528578,0.03109 -0.07427,0 -0.1269497,-0.018999 -0.05268,-0.018999 -0.087224,-0.051816 -0.033681,-0.033681 -0.050089,-0.078588 -0.015545,-0.044907 -0.015545,-0.097587 0,-0.1304041 0.096724,-0.2038104 0.097587,-0.07427 0.2875799,-0.07427 h 0.1796295 v -0.075997 q 0,-0.076861 -0.049225,-0.1226317 -0.049225,-0.046635 -0.150267,-0.046635 -0.073406,0 -0.1450853,0.016408 -0.070815,0.016408 -0.1468126,0.046635 V 7.1400436 q 0.028499,-0.010363 0.063043,-0.019863 0.035408,-0.010363 0.07427,-0.018136 0.038862,-0.00777 0.081179,-0.01209 0.042317,-0.00518 0.085497,-0.00518 0.078588,0 0.141631,0.017272 0.063043,0.017272 0.1062232,0.05268 0.044044,0.035408 0.067361,0.088951 0.023317,0.053543 0.023317,0.1260861 V 7.9673758 Z M 1.6482581,7.572709 H 1.4574018 q -0.056134,0 -0.096724,0.011227 -0.040589,0.011227 -0.066497,0.031953 -0.025908,0.020726 -0.038862,0.050089 -0.012091,0.028499 -0.012091,0.06477 0,0.025044 0.00777,0.048362 0.00777,0.022454 0.025045,0.040589 0.017272,0.017272 0.044907,0.027635 0.027635,0.010363 0.067361,0.010363 0.051816,0 0.1183137,-0.03109 0.067361,-0.031953 0.1416309,-0.100178 z M 2.0800599,7.1003179 h 0.1338585 l 0.00605,0.1399037 q 0.037999,-0.044907 0.073406,-0.07427 0.035408,-0.030226 0.069088,-0.048362 0.034544,-0.018136 0.069952,-0.025044 0.035408,-0.00777 0.073406,-0.00777 0.1338586,0 0.2020832,0.079452 0.069088,0.078588 0.069088,0.237491 V 7.9673758 H 2.6267209 V 7.4138059 q 0,-0.1019052 -0.037999,-0.150267 -0.037999,-0.049225 -0.1131321,-0.049225 -0.027635,0 -0.054407,0.00864 -0.025908,0.00777 -0.054407,0.028499 -0.028499,0.019863 -0.06218,0.054407 -0.032817,0.034544 -0.07427,0.08636 v 0.57516 H 2.0800599 Z M 3.8072668,7.526938 q 0,0.1010416 -0.028499,0.1856747 -0.028499,0.08377 -0.082042,0.1442218 -0.053543,0.059589 -0.1304042,0.093269 -0.076861,0.032817 -0.1744479,0.032817 -0.093269,0 -0.167539,-0.028499 Q 3.1509282,7.9250592 3.099112,7.868925 3.0481594,7.8127907 3.020524,7.7298848 2.9937523,7.6469789 2.9937523,7.5390284 q 0,-0.1010416 0.028499,-0.1839475 0.028499,-0.08377 0.082042,-0.1433582 0.053543,-0.060452 0.1304041,-0.093269 0.076861,-0.033681 0.1744479,-0.033681 0.093269,0 0.1666755,0.029362 0.07427,0.028499 0.1252225,0.084633 0.051816,0.055271 0.078588,0.1381766 0.027635,0.082906 0.027635,0.1899928 z m -0.1537214,0.00691 q 0,-0.080315 -0.018136,-0.1399038 -0.017272,-0.060452 -0.050089,-0.100178 -0.032817,-0.040589 -0.080315,-0.060452 -0.046635,-0.020727 -0.104496,-0.020727 -0.067361,0 -0.1157229,0.026772 -0.047498,0.025908 -0.078588,0.069952 -0.030226,0.044044 -0.044907,0.1027688 -0.013818,0.057861 -0.013818,0.1217681 0,0.080315 0.017272,0.1407674 0.018136,0.060452 0.050953,0.1010416 0.032817,0.039726 0.079452,0.060452 0.046635,0.019863 0.1053596,0.019863 0.067361,0 0.1148592,-0.025908 0.048362,-0.026772 0.078588,-0.070816 0.03109,-0.044044 0.044907,-0.1019052 0.014681,-0.058725 0.014681,-0.1234953 z m 1.1123214,-0.015545 q 0,0.1157229 -0.032817,0.2020833 -0.031953,0.08636 -0.088951,0.1433581 -0.056998,0.056998 -0.1347222,0.085497 -0.077724,0.028499 -0.1684027,0.028499 -0.041453,0 -0.082906,-0.00432 -0.040589,-0.00432 -0.082906,-0.014681 V 8.3214532 H 4.024895 V 7.1003179 h 0.1338585 l 0.0095,0.1450853 q 0.06477,-0.088951 0.1381766,-0.1243589 0.073406,-0.036271 0.158903,-0.036271 0.07427,0 0.1304042,0.03109 0.056134,0.03109 0.094133,0.088088 0.037998,0.056134 0.056998,0.1364493 0.018999,0.079452 0.018999,0.1779023 z m -0.1537215,0.00691 q 0,-0.068225 -0.010363,-0.1252225 -0.0095,-0.056998 -0.03109,-0.097587 -0.02159,-0.040589 -0.055271,-0.063043 -0.033681,-0.023317 -0.080315,-0.023317 -0.028499,0 -0.057861,0.0095 -0.029362,0.00864 -0.061316,0.030226 -0.03109,0.020727 -0.066497,0.056134 -0.034544,0.034544 -0.07427,0.08636 V 7.818836 q 0.041453,0.017272 0.087224,0.027635 0.045771,0.0095 0.089815,0.0095 0.1217681,0 0.1908564,-0.082042 0.069088,-0.082906 0.069088,-0.2487178 z m 1.1399567,0.00173 q 0,0.1010416 -0.028499,0.1856747 -0.028499,0.08377 -0.082042,0.1442218 -0.053543,0.059589 -0.1304042,0.093269 -0.076861,0.032817 -0.1744479,0.032817 -0.093269,0 -0.167539,-0.028499 -0.073406,-0.029363 -0.1252226,-0.085497 -0.050953,-0.056134 -0.078588,-0.1390402 -0.026772,-0.082906 -0.026772,-0.1908564 0,-0.1010416 0.028499,-0.1839475 0.028499,-0.08377 0.082042,-0.1433582 0.053543,-0.060452 0.1304041,-0.093269 0.076861,-0.033681 0.1744479,-0.033681 0.093269,0 0.1666755,0.029362 0.07427,0.028499 0.1252225,0.084633 0.051816,0.055271 0.078588,0.1381766 0.027635,0.082906 0.027635,0.1899928 z m -0.1537214,0.00691 q 0,-0.080315 -0.018136,-0.1399038 -0.017272,-0.060452 -0.050089,-0.100178 -0.032817,-0.040589 -0.080315,-0.060452 -0.046635,-0.020727 -0.104496,-0.020727 -0.067361,0 -0.1157229,0.026772 -0.047498,0.025908 -0.078588,0.069952 -0.030226,0.044044 -0.044907,0.1027688 -0.013818,0.057861 -0.013818,0.1217681 0,0.080315 0.017272,0.1407674 0.018136,0.060452 0.050953,0.1010416 0.032817,0.039726 0.079452,0.060452 0.046635,0.019863 0.1053597,0.019863 0.067361,0 0.1148592,-0.025908 0.048362,-0.026772 0.078588,-0.070816 0.03109,-0.044044 0.044907,-0.1019052 0.014681,-0.058725 0.014681,-0.1234953 z M 6.0051377,7.1003179 h 0.1373129 l 0.00432,0.1597666 q 0.076861,-0.092406 0.1511306,-0.1338585 0.075134,-0.041453 0.1511306,-0.041453 0.1347222,0 0.2038105,0.087224 0.069952,0.087224 0.06477,0.2590811 H 6.5656163 q 0.00259,-0.1139957 -0.033681,-0.1649483 -0.035408,-0.051816 -0.104496,-0.051816 -0.030226,0 -0.061316,0.011227 -0.030226,0.010363 -0.063043,0.034544 -0.031953,0.023317 -0.068225,0.060452 -0.036271,0.037135 -0.077724,0.089815 V 7.9673758 H 6.0051377 Z m 1.6693458,0.3877579 q 0,0.031953 -8.636e-4,0.053543 -8.636e-4,0.02159 -0.00259,0.040589 H 7.0621886 q 0,0.1329949 0.07427,0.204674 0.07427,0.070816 0.2141737,0.070816 0.037999,0 0.075997,-0.00259 0.037999,-0.00345 0.073406,-0.00864 0.035408,-0.00518 0.067361,-0.011227 0.032817,-0.00691 0.060452,-0.014681 v 0.1234953 q -0.061316,0.017272 -0.1390401,0.027635 -0.076861,0.011227 -0.1597667,0.011227 -0.1114048,0 -0.19172,-0.030226 -0.080315,-0.030226 -0.1321313,-0.087224 -0.050953,-0.057861 -0.075997,-0.1407673 -0.024181,-0.08377 -0.024181,-0.1891292 0,-0.091542 0.025908,-0.1727207 0.026772,-0.082042 0.076861,-0.1433582 0.050953,-0.062179 0.1243589,-0.098451 0.073406,-0.036271 0.1666755,-0.036271 0.090678,0 0.1606302,0.028499 0.069952,0.028499 0.1174501,0.081179 0.048362,0.051816 0.072543,0.1269497 0.025044,0.07427 0.025044,0.1666755 z m -0.1563122,-0.02159 q 0.00259,-0.057861 -0.011227,-0.1053596 -0.013818,-0.048362 -0.04318,-0.082906 -0.028499,-0.034544 -0.071679,-0.053543 -0.04318,-0.019863 -0.100178,-0.019863 -0.049225,0 -0.089815,0.018999 -0.040589,0.018999 -0.069952,0.053543 -0.029363,0.034544 -0.047498,0.082906 -0.018136,0.048362 -0.022454,0.1062232 z M 9.626227,7.6297068 q 0,0.081179 -0.031953,0.1442218 -0.03109,0.062179 -0.089815,0.1053596 -0.057861,0.04318 -0.1407673,0.065634 -0.082042,0.022454 -0.183084,0.022454 H 8.8852552 V 6.838646 h 0.3229877 q 0.3773948,0 0.3773948,0.2746259 0,0.091542 -0.044044,0.1571758 -0.04318,0.065634 -0.141631,0.097587 0.045771,0.00864 0.08636,0.029363 0.041453,0.020726 0.072543,0.053543 0.03109,0.032817 0.049225,0.077724 0.018136,0.044907 0.018136,0.1010416 z M 9.425871,7.1339984 q 0,-0.034544 -0.010363,-0.06477 -0.010363,-0.03109 -0.036271,-0.05268 -0.025908,-0.022454 -0.069952,-0.035408 -0.044044,-0.012954 -0.1114049,-0.012954 h -0.158903 v 0.3532138 h 0.1537214 q 0.05268,0 0.094996,-0.011227 0.04318,-0.011227 0.073406,-0.034544 0.03109,-0.023317 0.047498,-0.057861 0.017272,-0.035408 0.017272,-0.083769 z m 0.037135,0.50089 q 0,-0.04318 -0.018136,-0.077724 Q 9.4267346,7.52262 9.3921905,7.4993027 9.3576464,7.4751218 9.3075574,7.4621677 9.258332,7.4492137 9.1961525,7.4492137 H 9.0389767 v 0.3886215 h 0.1623574 q 0.1321314,0 0.1969016,-0.049225 0.06477,-0.049225 0.06477,-0.1537214 z m 0.953419,0.3324874 -0.0035,-0.1165865 q -0.07081,0.069952 -0.144222,0.1010416 -0.07254,0.03109 -0.152857,0.03109 -0.07427,0 -0.1269502,-0.018999 -0.05268,-0.018999 -0.087224,-0.051816 -0.033681,-0.033681 -0.050089,-0.078588 -0.015545,-0.044907 -0.015545,-0.097587 0,-0.1304041 0.096724,-0.2038104 0.097587,-0.07427 0.2875804,-0.07427 h 0.179629 v -0.075997 q 0,-0.076861 -0.04923,-0.1226317 -0.04923,-0.046635 -0.150267,-0.046635 -0.07341,0 -0.145086,0.016408 -0.070815,0.016408 -0.1468123,0.046635 V 7.1400436 q 0.028499,-0.010363 0.063043,-0.019863 0.035407,-0.010363 0.07427,-0.018136 0.03886,-0.00777 0.08118,-0.01209 0.04232,-0.00518 0.0855,-0.00518 0.07859,0 0.141631,0.017272 0.06304,0.017272 0.106223,0.05268 0.04404,0.035408 0.06736,0.088951 0.02332,0.053543 0.02332,0.1260861 V 7.9673758 Z M 10.400016,7.572709 H 10.20916 q -0.05614,0 -0.09672,0.011227 -0.04059,0.011227 -0.0665,0.031953 -0.02591,0.020726 -0.03886,0.050089 -0.01209,0.028499 -0.01209,0.06477 0,0.025044 0.00777,0.048362 0.0078,0.022454 0.02505,0.040589 0.01727,0.017272 0.04491,0.027635 0.02764,0.010363 0.06736,0.010363 0.05182,0 0.118314,-0.03109 0.06736,-0.031953 0.141631,-0.100178 z m 0.46721,-0.4723911 h 0.137313 l 0.0043,0.1597666 q 0.07686,-0.092406 0.15113,-0.1338585 0.07513,-0.041453 0.151131,-0.041453 0.134722,0 0.20381,0.087224 0.06995,0.087224 0.06477,0.2590811 h -0.151994 q 0.0026,-0.1139957 -0.03368,-0.1649483 -0.03541,-0.051816 -0.104496,-0.051816 -0.03023,0 -0.06132,0.011227 -0.03023,0.010363 -0.06304,0.034544 -0.03195,0.023317 -0.06822,0.060452 -0.03627,0.037135 -0.07772,0.089815 v 0.5570243 h -0.151994 z m 1.61062,0.8351045 q -0.05872,0.022454 -0.120905,0.032817 -0.06132,0.011227 -0.126949,0.011227 -0.205538,0 -0.316943,-0.1114048 -0.110541,-0.1114049 -0.110541,-0.3255786 0,-0.1027688 0.03195,-0.1865383 0.03195,-0.08377 0.08982,-0.1433582 0.05786,-0.059589 0.138176,-0.091542 0.08032,-0.032817 0.177039,-0.032817 0.06736,0 0.126086,0.0095 0.05873,0.0095 0.112269,0.03109 v 0.1433581 q -0.05613,-0.029363 -0.11486,-0.042317 -0.05786,-0.013818 -0.12004,-0.013818 -0.05786,0 -0.109678,0.022454 -0.05095,0.02159 -0.08981,0.063043 -0.03886,0.041453 -0.06132,0.1010416 -0.02245,0.059589 -0.02245,0.1347221 0,0.1571759 0.076,0.2357638 0.07686,0.077724 0.212446,0.077724 0.06132,0 0.118314,-0.013818 0.05786,-0.013818 0.111405,-0.041453 z M 13.531442,7.526938 q 0,0.1010416 -0.0285,0.1856747 -0.0285,0.08377 -0.08204,0.1442218 -0.05354,0.059589 -0.130404,0.093269 -0.07686,0.032817 -0.174448,0.032817 -0.09327,0 -0.167539,-0.028499 -0.07341,-0.029363 -0.125223,-0.085497 -0.05095,-0.056134 -0.07859,-0.1390402 -0.02677,-0.082906 -0.02677,-0.1908564 0,-0.1010416 0.0285,-0.1839475 0.0285,-0.08377 0.08204,-0.1433582 0.05354,-0.060452 0.130404,-0.093269 0.07686,-0.033681 0.174448,-0.033681 0.09327,0 0.166676,0.029362 0.07427,0.028499 0.125222,0.084633 0.05182,0.055271 0.07859,0.1381766 0.02764,0.082906 0.02764,0.1899928 z m -0.153721,0.00691 q 0,-0.080315 -0.01814,-0.1399038 -0.01727,-0.060452 -0.05009,-0.100178 -0.03282,-0.040589 -0.08031,-0.060452 -0.04664,-0.020727 -0.104496,-0.020727 -0.06736,0 -0.115723,0.026772 -0.0475,0.025908 -0.07859,0.069952 -0.03023,0.044044 -0.04491,0.1027688 -0.01382,0.057861 -0.01382,0.1217681 0,0.080315 0.01727,0.1407674 0.01814,0.060452 0.05095,0.1010416 0.03282,0.039726 0.07945,0.060452 0.04664,0.019863 0.10536,0.019863 0.06736,0 0.114859,-0.025908 0.04836,-0.026772 0.07859,-0.070816 0.03109,-0.044044 0.04491,-0.1019052 0.01468,-0.058725 0.01468,-0.1234953 z m 0.327306,0.018136 q 0,-0.1105413 0.03023,-0.196038 0.03023,-0.08636 0.0855,-0.1450854 0.05613,-0.059589 0.133858,-0.089815 0.07859,-0.03109 0.174448,-0.03109 0.04145,0 0.08118,0.00518 0.04059,0.00518 0.07945,0.016408 V 6.747104 h 0.151131 v 1.2202718 h -0.134722 l -0.0052,-0.1640847 q -0.06304,0.091542 -0.136449,0.1355857 -0.07341,0.044044 -0.158903,0.044044 -0.07427,0 -0.131268,-0.03109 -0.05613,-0.03109 -0.09413,-0.087224 -0.03714,-0.056998 -0.05613,-0.1364493 -0.019,-0.079452 -0.019,-0.1761751 z m 0.153721,-0.0095 q 0,0.1571759 0.04577,0.2349002 0.04664,0.076861 0.131268,0.076861 0.057,0 0.120041,-0.050953 0.06391,-0.050953 0.133858,-0.1511306 V 7.2497213 q -0.03713,-0.017272 -0.08204,-0.025908 -0.04491,-0.0095 -0.08895,-0.0095 -0.122632,0 -0.19172,0.079451 -0.06822,0.079452 -0.06822,0.2487178 z m 1.595075,-0.054407 q 0,0.031953 -8.63e-4,0.053543 -8.64e-4,0.02159 -0.0026,0.040589 h -0.608841 q 0,0.1329949 0.07427,0.204674 0.07427,0.070816 0.214174,0.070816 0.038,0 0.076,-0.00259 0.038,-0.00345 0.07341,-0.00864 0.03541,-0.00518 0.06736,-0.011227 0.03282,-0.00691 0.06045,-0.014681 v 0.1234953 q -0.06132,0.017272 -0.13904,0.027635 -0.07686,0.011227 -0.159767,0.011227 -0.111405,0 -0.19172,-0.030226 -0.08032,-0.030226 -0.132131,-0.087224 -0.05095,-0.057861 -0.076,-0.1407673 -0.02418,-0.08377 -0.02418,-0.1891292 0,-0.091542 0.02591,-0.1727207 0.02677,-0.082042 0.07686,-0.1433582 0.05095,-0.062179 0.124359,-0.098451 0.07341,-0.036271 0.166676,-0.036271 0.09068,0 0.16063,0.028499 0.06995,0.028499 0.11745,0.081179 0.04836,0.051816 0.07254,0.1269497 0.02504,0.07427 0.02504,0.1666755 z m -0.156312,-0.02159 q 0.0026,-0.057861 -0.01123,-0.1053596 -0.01382,-0.048362 -0.04318,-0.082906 -0.0285,-0.034544 -0.07168,-0.053543 -0.04318,-0.019863 -0.100178,-0.019863 -0.04922,0 -0.08981,0.018999 -0.04059,0.018999 -0.06995,0.053543 -0.02936,0.034544 -0.0475,0.082906 -0.01814,0.048362 -0.02245,0.1062232 z m 2.091647,0.1951744 q 0,0.080315 -0.03282,0.1407674 -0.03282,0.060452 -0.09154,0.1010416 -0.05872,0.039726 -0.141631,0.059589 -0.08204,0.019863 -0.181356,0.019863 -0.04491,0 -0.08981,-0.00345 -0.04404,-0.00345 -0.0855,-0.00864 -0.04059,-0.00518 -0.07686,-0.012091 -0.03627,-0.00691 -0.06563,-0.014681 V 7.7955187 q 0.06477,0.024181 0.145085,0.037999 0.08118,0.013818 0.183948,0.013818 0.07427,0 0.126086,-0.011227 0.05268,-0.01209 0.0855,-0.034544 0.03368,-0.023317 0.04836,-0.056134 0.01554,-0.032817 0.01554,-0.075133 0,-0.045771 -0.02591,-0.077724 -0.02504,-0.032817 -0.0665,-0.057861 -0.04145,-0.025908 -0.095,-0.046635 -0.05268,-0.02159 -0.10795,-0.044044 -0.05527,-0.022454 -0.108814,-0.048362 -0.05268,-0.026772 -0.09413,-0.062179 -0.04145,-0.036271 -0.06736,-0.084633 -0.02504,-0.048362 -0.02504,-0.1148593 0,-0.057861 0.02418,-0.1139957 0.02418,-0.056134 0.07513,-0.099314 0.05095,-0.044044 0.130404,-0.070816 0.08031,-0.026772 0.190856,-0.026772 0.0285,0 0.06132,0.00259 0.03368,0.00259 0.06736,0.00777 0.03454,0.00432 0.06736,0.010363 0.03368,0.00605 0.06218,0.012954 v 0.1381765 q -0.0665,-0.018999 -0.132995,-0.028499 -0.0665,-0.010363 -0.128677,-0.010363 -0.132132,0 -0.194311,0.044044 -0.06218,0.044044 -0.06218,0.1183137 0,0.045771 0.02504,0.078588 0.02591,0.032817 0.06736,0.058725 0.04145,0.025908 0.09413,0.047498 0.05354,0.020727 0.108814,0.04318 0.05527,0.022454 0.10795,0.049225 0.05354,0.026772 0.095,0.063907 0.04145,0.036271 0.0665,0.085497 0.02591,0.049225 0.02591,0.1165865 z m 0.990554,-0.1433582 q 0,0.1157229 -0.03282,0.2020833 -0.03195,0.08636 -0.08895,0.1433581 -0.057,0.056998 -0.134722,0.085497 -0.07772,0.028499 -0.168403,0.028499 -0.04145,0 -0.08291,-0.00432 -0.04059,-0.00432 -0.08291,-0.014681 V 8.3214532 H 17.63874 V 7.1003179 h 0.133859 l 0.0095,0.1450853 q 0.06477,-0.088951 0.138177,-0.1243589 0.07341,-0.036271 0.158903,-0.036271 0.07427,0 0.130404,0.03109 0.05613,0.03109 0.09413,0.088088 0.038,0.056134 0.057,0.1364493 0.019,0.079452 0.019,0.1779023 z m -0.153722,0.00691 q 0,-0.068225 -0.01036,-0.1252225 -0.0095,-0.056998 -0.03109,-0.097587 -0.02159,-0.040589 -0.05527,-0.063043 -0.03368,-0.023317 -0.08031,-0.023317 -0.0285,0 -0.05786,0.0095 -0.02936,0.00864 -0.06132,0.030226 -0.03109,0.020727 -0.0665,0.056134 -0.03454,0.034544 -0.07427,0.08636 V 7.818836 q 0.04145,0.017272 0.08722,0.027635 0.04577,0.0095 0.08981,0.0095 0.121768,0 0.190856,-0.082042 0.06909,-0.082906 0.06909,-0.2487178 z M 18.90651,6.8705993 H 18.65002 V 6.747104 h 0.408485 v 1.0950492 h 0.258217 V 7.9673758 H 18.621521 V 7.8421532 h 0.284989 z m 0.972418,0.3540775 h -0.25649 V 7.1003179 h 0.408484 V 7.8421532 H 20.28914 V 7.9673758 H 19.593939 V 7.8421532 h 0.284989 z m 0.05268,-0.487936 q 0.02504,0 0.04663,0.0095 0.02159,0.00864 0.03713,0.025045 0.01641,0.016408 0.02504,0.037999 0.0095,0.020726 0.0095,0.045771 0,0.024181 -0.0095,0.045771 -0.0086,0.02159 -0.02504,0.037999 -0.01554,0.016408 -0.03713,0.025908 -0.02159,0.00864 -0.04663,0.00864 -0.02505,0 -0.04664,-0.00864 -0.02159,-0.0095 -0.038,-0.025908 -0.01554,-0.016409 -0.02505,-0.037999 -0.0086,-0.02159 -0.0086,-0.045771 0,-0.025044 0.0086,-0.045771 0.0095,-0.02159 0.02505,-0.037999 0.01641,-0.016408 0.038,-0.025045 0.02159,-0.0095 0.04664,-0.0095 z m 1.323041,1.2185445 q -0.05095,0.012954 -0.10536,0.018136 -0.05441,0.00605 -0.110541,0.00605 -0.163221,0 -0.243536,-0.073406 -0.08031,-0.07427 -0.08031,-0.2271277 V 7.226404 H 20.472224 V 7.1003179 h 0.242673 V 6.8619633 l 0.150267,-0.038862 v 0.2772168 h 0.389485 V 7.226404 h -0.389485 v 0.4404377 q 0,0.093269 0.04922,0.1399038 0.05009,0.045771 0.146813,0.045771 0.04145,0 0.09068,-0.00605 0.04922,-0.00691 0.102769,-0.020727 z m 0.972418,0 q -0.05095,0.012954 -0.10536,0.018136 -0.05441,0.00605 -0.110541,0.00605 -0.163221,0 -0.243536,-0.073406 -0.08032,-0.07427 -0.08032,-0.2271277 V 7.226404 H 21.444642 V 7.1003179 h 0.242672 V 6.8619633 l 0.150267,-0.038862 v 0.2772168 h 0.389486 V 7.226404 h -0.389486 v 0.4404377 q 0,0.093269 0.04923,0.1399038 0.05009,0.045771 0.146812,0.045771 0.04145,0 0.09068,-0.00605 0.04922,-0.00691 0.102769,-0.020727 z M 22.79618,7.2246768 H 22.539689 V 7.1003179 h 0.408485 v 0.7418353 h 0.258217 v 0.1252226 h -0.6952 V 7.8421532 h 0.284989 z m 0.05268,-0.487936 q 0.02504,0 0.04663,0.0095 0.02159,0.00864 0.03713,0.025045 0.01641,0.016408 0.02505,0.037999 0.0095,0.020726 0.0095,0.045771 0,0.024181 -0.0095,0.045771 -0.0086,0.02159 -0.02505,0.037999 -0.01554,0.016408 -0.03713,0.025908 -0.02159,0.00864 -0.04663,0.00864 -0.02504,0 -0.04663,-0.00864 -0.02159,-0.0095 -0.038,-0.025908 -0.01554,-0.016409 -0.02504,-0.037999 -0.0086,-0.02159 -0.0086,-0.045771 0,-0.025044 0.0086,-0.045771 0.0095,-0.02159 0.02504,-0.037999 0.01641,-0.016408 0.038,-0.025045 0.02159,-0.0095 0.04663,-0.0095 z m 0.624385,0.3635771 h 0.133859 l 0.006,0.1399037 q 0.038,-0.044907 0.07341,-0.07427 0.03541,-0.030226 0.06909,-0.048362 0.03455,-0.018136 0.06995,-0.025044 0.03541,-0.00777 0.07341,-0.00777 0.133858,0 0.202083,0.079452 0.06909,0.078588 0.06909,0.237491 V 7.9673758 H 24.019906 V 7.4138059 q 0,-0.1019052 -0.038,-0.150267 -0.038,-0.049225 -0.113132,-0.049225 -0.02764,0 -0.05441,0.00864 -0.02591,0.00777 -0.05441,0.028499 -0.0285,0.019863 -0.06218,0.054407 -0.03282,0.034544 -0.07427,0.08636 v 0.57516 h -0.150267 z m 1.596803,0.1226316 q 0.02418,0.030226 0.03713,0.070815 0.01382,0.039726 0.01382,0.08636 0,0.067361 -0.02504,0.1234953 -0.02418,0.055271 -0.06909,0.094996 -0.04491,0.039726 -0.10795,0.062179 -0.06218,0.02159 -0.137313,0.02159 -0.05441,0 -0.101905,-0.011227 -0.0475,-0.012091 -0.07513,-0.029363 -0.01641,0.024181 -0.02764,0.045771 -0.01123,0.02159 -0.01123,0.048362 0,0.032817 0.03109,0.054407 0.03195,0.02159 0.08377,0.023317 l 0.227991,0.00864 q 0.06477,0.00173 0.119178,0.016408 0.05527,0.014681 0.09413,0.042317 0.03973,0.027635 0.06132,0.068225 0.02245,0.040589 0.02245,0.094133 0,0.057861 -0.02504,0.1096776 -0.02504,0.051816 -0.07772,0.090678 -0.05182,0.039726 -0.132131,0.063043 -0.08031,0.023317 -0.190856,0.023317 -0.10536,0 -0.17963,-0.017272 -0.07341,-0.016408 -0.120904,-0.046635 -0.0475,-0.029363 -0.06909,-0.070816 -0.02159,-0.040589 -0.02159,-0.089815 0,-0.063043 0.02936,-0.1105412 0.02936,-0.047498 0.09068,-0.091542 -0.02245,-0.010363 -0.03886,-0.025908 -0.01641,-0.015545 -0.02677,-0.033681 -0.01036,-0.018999 -0.01554,-0.039726 -0.0052,-0.020726 -0.0052,-0.040589 0,-0.056134 0.02591,-0.1027688 0.02677,-0.046635 0.06304,-0.088088 -0.01641,-0.019863 -0.02936,-0.038862 -0.01209,-0.018999 -0.02159,-0.040589 -0.0086,-0.022454 -0.01382,-0.047498 -0.0043,-0.025908 -0.0043,-0.058725 0,-0.067361 0.02418,-0.1226317 0.02505,-0.056134 0.06909,-0.09586 0.04491,-0.039726 0.107087,-0.061316 0.06304,-0.022454 0.13904,-0.022454 0.03195,0 0.06132,0.00432 0.02936,0.00432 0.05182,0.011227 h 0.314351 v 0.1226316 z m -0.521616,0.8696488 q 0,0.061316 0.06391,0.088951 0.06391,0.028499 0.177903,0.028499 0.07168,0 0.120041,-0.012954 0.04922,-0.012954 0.07859,-0.034544 0.03023,-0.020726 0.04318,-0.048362 0.01295,-0.026772 0.01295,-0.055271 0,-0.05268 -0.04318,-0.077724 -0.04318,-0.025045 -0.132132,-0.029363 l -0.226264,-0.00777 q -0.0285,0.018999 -0.0475,0.037135 -0.01814,0.018136 -0.0285,0.036271 -0.01036,0.018999 -0.01468,0.037135 -0.0043,0.018999 -0.0043,0.037999 z m 0.04577,-0.7090185 q 0,0.041453 0.01382,0.075997 0.01382,0.034544 0.03886,0.058725 0.02504,0.024181 0.05873,0.037999 0.03454,0.012954 0.076,0.012954 0.04491,0 0.07945,-0.014681 0.03541,-0.015545 0.05872,-0.041453 0.02418,-0.025908 0.03627,-0.059589 0.01295,-0.033681 0.01295,-0.069952 0,-0.041453 -0.01382,-0.075997 -0.01382,-0.034544 -0.03886,-0.058725 -0.02504,-0.024181 -0.05959,-0.037135 -0.03368,-0.013818 -0.07513,-0.013818 -0.04491,0 -0.08031,0.015545 -0.03455,0.015545 -0.05872,0.041453 -0.02332,0.025044 -0.03627,0.058725 -0.01209,0.033681 -0.01209,0.069952 z M 27.15047,6.9699137 H 26.816255 V 7.9673758 H 26.660807 V 6.9699137 H 26.326592 V 6.838646 h 0.823878 z m 0.967236,0.5570243 q 0,0.1010416 -0.0285,0.1856747 -0.0285,0.08377 -0.08204,0.1442218 -0.05354,0.059589 -0.130404,0.093269 -0.07686,0.032817 -0.174448,0.032817 -0.09327,0 -0.167539,-0.028499 -0.07341,-0.029363 -0.125223,-0.085497 -0.05095,-0.056134 -0.07859,-0.1390402 -0.02677,-0.082906 -0.02677,-0.1908564 0,-0.1010416 0.0285,-0.1839475 0.0285,-0.08377 0.08204,-0.1433582 0.05354,-0.060452 0.130404,-0.093269 0.07686,-0.033681 0.174448,-0.033681 0.09327,0 0.166675,0.029362 0.07427,0.028499 0.125223,0.084633 0.05182,0.055271 0.07859,0.1381766 0.02764,0.082906 0.02764,0.1899928 z m -0.153721,0.00691 q 0,-0.080315 -0.01814,-0.1399038 -0.01727,-0.060452 -0.05009,-0.100178 -0.03282,-0.040589 -0.08031,-0.060452 -0.04664,-0.020727 -0.104496,-0.020727 -0.06736,0 -0.115723,0.026772 -0.0475,0.025908 -0.07859,0.069952 -0.03023,0.044044 -0.04491,0.1027688 -0.01382,0.057861 -0.01382,0.1217681 0,0.080315 0.01727,0.1407674 0.01814,0.060452 0.05095,0.1010416 0.03282,0.039726 0.07945,0.060452 0.04664,0.019863 0.10536,0.019863 0.06736,0 0.114859,-0.025908 0.04836,-0.026772 0.07859,-0.070816 0.03109,-0.044044 0.04491,-0.1019052 0.01468,-0.058725 0.01468,-0.1234953 z m 1.126137,-0.00691 q 0,0.1010416 -0.0285,0.1856747 -0.0285,0.08377 -0.08204,0.1442218 -0.05354,0.059589 -0.130405,0.093269 -0.07686,0.032817 -0.174447,0.032817 -0.09327,0 -0.16754,-0.028499 -0.07341,-0.029363 -0.125222,-0.085497 -0.05095,-0.056134 -0.07859,-0.1390402 -0.02677,-0.082906 -0.02677,-0.1908564 0,-0.1010416 0.0285,-0.1839475 0.0285,-0.08377 0.08204,-0.1433582 0.05354,-0.060452 0.130404,-0.093269 0.07686,-0.033681 0.174448,-0.033681 0.09327,0 0.166675,0.029362 0.07427,0.028499 0.125223,0.084633 0.05182,0.055271 0.07859,0.1381766 0.02764,0.082906 0.02764,0.1899928 z m -0.153722,0.00691 q 0,-0.080315 -0.01813,-0.1399038 -0.01727,-0.060452 -0.05009,-0.100178 -0.03282,-0.040589 -0.08031,-0.060452 -0.04663,-0.020727 -0.104496,-0.020727 -0.06736,0 -0.115723,0.026772 -0.0475,0.025908 -0.07859,0.069952 -0.03023,0.044044 -0.04491,0.1027688 -0.01382,0.057861 -0.01382,0.1217681 0,0.080315 0.01727,0.1407674 0.01814,0.060452 0.05095,0.1010416 0.03282,0.039726 0.07945,0.060452 0.04663,0.019863 0.10536,0.019863 0.06736,0 0.114859,-0.025908 0.04836,-0.026772 0.07859,-0.070816 0.03109,-0.044044 0.04491,-0.1019052 0.01468,-0.058725 0.01468,-0.1234953 z M 29.603103,6.8705993 H 29.346612 V 6.747104 h 0.408485 v 1.0950492 h 0.258217 V 7.9673758 H 29.318113 V 7.8421532 h 0.28499 z"
           id="text2"
           style="font-size:1.76866px;font-family:Consolas;-inkscape-font-specification:'Consolas, Normal';text-align:center;text-anchor:middle;fill:#333333;stroke-width:0.501353"
           aria-label="Nanopore Barcode Splitting Tool" />
      </g>
    </g>
  </g>
</svg>
